 <svg  version="1.0" xmlns="http://www.w3.org/2000/svg"  width="300.000000pt" height="200.000000pt" viewBox="0 0 300.000000 200.000000"  preserveAspectRatio="xMidYMid meet">  <g transform="translate(0.000000,200.000000) scale(0.100000,-0.100000)" fill="#100f0f" stroke="none"> <path d="M1456 1859 c-46 -11 -116 -64 -116 -88 0 -9 -13 -30 -30 -46 -48 -46 -62 -121 -35 -187 4 -11 0 -18 -13 -23 -41 -12 -51 -119 -13 -133 9 -3 22 -12 29 -19 24 -24 34 -13 13 13 -25 31 -28 105 -7 144 9 16 12 42 9 75 -4 44 -1 56 26 96 21 31 41 49 59 52 15 3 56 12 92 21 53 12 77 13 130 4 36 -6 69 -15 75 -20 5 -4 20 -8 33 -8 48 0 97 -83 89 -149 -4 -30 -1 -55 8 -71 21 -37 19 -113 -4 -138 -10 -12 -21 -22 -25 -22 -3 0 -6 47 -6 105 0 93 -2 105 -19 115 -11 5 -22 10 -25 10 -10 0 -6 -279 3 -285 6 -3 23 7 40 22 42 39 54 48 72 55 38 15 28 121 -13 133 -13 5 -17 12 -13 23 26 66 8 146 -45 197 -17 16 -30 36 -30 46 0 9 -17 28 -37 42 -62 43 -158 57 -247 36z m174 -30 c20 -5 49 -22 65 -39 26 -27 27 -30 9 -30 -11 0 -24 4 -29 9 -6 5 -38 13 -72 19 -64 11 -177 0 -197 -19 -6 -5 -19 -9 -30 -9 -19 0 -19 0 0 21 54 60 142 76 254 48z"/> <path d="M2327 1715 c-20 -14 -37 -30 -37 -35 0 -17 69 -62 85 -56 12 4 15 18 13 58 -2 28 -8 53 -13 55 -6 2 -27 -8 -48 -22z m53 -34 c0 -51 -9 -56 -46 -25 l-29 24 24 20 c36 31 51 26 51 -19z"/> <path d="M2488 1715 c-21 -14 -38 -31 -38 -38 0 -18 82 -68 95 -57 5 4 10 32 10 62 0 64 -13 70 -67 33z"/> <path d="M2170 1700 l-25 -20 25 -20 c33 -26 45 -21 45 20 0 41 -12 46 -45 20z"/> <path d="M693 1698 c-106 -28 -110 -187 -5 -219 81 -24 152 29 152 113 0 70 -76 125 -147 106z m96 -34 c60 -50 46 -140 -26 -170 -47 -20 -97 -4 -124 40 -29 47 -25 82 15 122 43 43 90 46 135 8z"/> <path d="M702 1600 c0 -25 2 -39 5 -32 2 6 12 12 20 12 13 0 13 -3 3 -15 -11 -13 -10 -14 4 -9 22 8 20 31 -3 37 -11 2 -21 15 -24 28 -2 13 -5 4 -5 -21z"/> <path d="M392 1680 c-62 -38 -70 -114 -18 -166 27 -27 42 -34 74 -34 110 0 151 144 58 201 -40 24 -73 24 -114 -1z m36 -62 c9 -19 11 -20 11 -5 1 17 2 17 18 1 11 -11 18 -13 21 -5 7 20 22 1 21 -27 0 -24 -1 -25 -9 -7 -6 13 -9 15 -9 5 -1 -13 -2 -13 -11 0 -8 13 -10 12 -10 -2 0 -10 -7 -18 -16 -18 -10 0 -14 6 -11 14 4 10 1 13 -9 9 -7 -3 -14 -9 -14 -14 0 -5 -3 -9 -8 -9 -4 0 -6 18 -4 40 5 45 14 51 30 18z m57 -87 c-8 -13 -62 -14 -70 -2 -3 6 12 11 32 13 45 4 47 3 38 -11z"/> <path d="M984 1691 c-37 -16 -64 -60 -64 -105 1 -88 89 -134 167 -86 59 36 62 123 6 173 -24 21 -80 30 -109 18z m79 -46 c3 -15 -43 -19 -57 -5 -8 8 -7 13 3 19 16 10 52 0 54 -14z m-78 -26 c4 -12 10 -18 14 -13 9 13 41 17 41 4 0 -5 -4 -10 -10 -10 -5 0 -10 -10 -10 -22 0 -20 -1 -21 -13 -4 -13 17 -14 17 -30 1 -16 -15 -17 -14 -17 24 0 44 14 55 25 20z m100 -9 c3 -6 -1 -13 -9 -16 -9 -3 -16 -11 -16 -17 0 -7 4 -7 12 1 21 21 32 13 12 -9 -17 -19 -19 -19 -31 -3 -8 12 -9 22 -2 35 11 21 24 24 34 9z m-62 -64 c7 2 24 1 37 -4 l24 -9 -22 -12 c-13 -7 -36 -10 -52 -6 -32 7 -51 26 -32 33 7 2 12 11 13 20 0 12 3 11 9 -5 5 -13 15 -20 23 -17z"/> <path d="M1520 1605 c-29 -31 -21 -42 14 -20 l26 17 0 -70 c0 -39 -4 -73 -8 -76 -4 -2 -23 5 -41 16 -31 20 -33 24 -28 65 l5 44 -32 -3 c-30 -3 -31 -4 -31 -53 0 -48 1 -50 30 -53 17 -2 44 -15 62 -28 17 -13 36 -24 42 -24 9 0 20 171 13 198 -6 19 -26 14 -52 -13z"/> <path d="M1611 1586 c-13 -13 -18 -26 -13 -30 5 -3 19 5 31 18 13 13 18 26 13 30 -5 3 -19 -5 -31 -18z"/> <path d="M2015 1598 c-3 -7 -27 -123 -55 -258 -28 -135 -53 -255 -55 -267 -4 -19 -24 -26 -160 -58 -143 -34 -165 -37 -268 -33 -62 3 -119 8 -127 11 -13 6 -15 -15 -13 -168 2 -134 0 -175 -10 -175 -6 1 -123 27 -260 59 -136 32 -248 56 -250 55 -1 -1 0 -24 1 -51 3 -34 9 -53 22 -61 10 -6 119 -34 242 -62 122 -28 231 -54 240 -56 15 -5 17 -22 15 -164 l-2 -159 38 -6 c21 -4 37 -12 37 -20 0 -55 168 -60 185 -5 4 12 51 27 185 59 99 24 180 47 180 52 0 6 11 21 25 34 13 14 21 25 17 25 -4 -1 -83 -20 -177 -43 -126 -31 -170 -46 -170 -57 0 -8 -7 -15 -15 -15 -13 0 -15 47 -15 360 0 343 1 360 19 363 11 3 16 0 12 -7 -4 -6 -4 -11 1 -11 4 0 108 23 229 52 206 49 223 55 237 81 10 17 24 27 40 27 13 0 32 7 43 16 18 15 18 15 -6 10 -14 -2 -79 -18 -144 -35 -65 -17 -120 -31 -121 -31 -1 0 5 32 13 70 9 39 20 70 26 70 6 0 53 -9 105 -20 52 -11 97 -20 101 -20 4 0 10 19 14 43 4 23 9 52 12 64 6 21 2 20 -115 -17 -82 -26 -121 -34 -121 -26 0 7 47 28 108 47 59 18 98 35 87 36 -11 2 -53 -8 -94 -22 -41 -14 -82 -25 -90 -25 -29 1 17 28 69 41 27 7 47 16 44 20 -2 4 -27 10 -54 14 -28 4 -50 8 -50 10 0 19 22 55 30 50 8 -5 8 -11 1 -19 -9 -10 14 -18 102 -36 61 -13 113 -24 115 -25 1 -1 -4 -31 -13 -66 -19 -84 -19 -96 4 -102 20 -5 24 6 46 124 l7 36 111 -23 c139 -29 137 -29 137 -1 0 22 -8 25 -107 46 -60 12 -113 24 -119 26 -8 2 -6 27 6 84 9 44 15 83 12 86 -3 3 -13 5 -22 5 -13 0 -21 -19 -34 -80 -10 -46 -22 -80 -29 -80 -7 0 -60 10 -119 21 -69 14 -108 26 -108 35 0 10 11 10 57 -1 32 -7 59 -13 60 -11 1 1 -22 21 -52 45 -30 24 -52 48 -49 53 6 10 13 6 96 -65 31 -27 62 -47 67 -46 6 2 -28 36 -74 74 -47 39 -85 73 -85 78 0 18 25 2 112 -72 l93 -79 12 57 c6 31 12 61 12 66 1 6 -27 17 -61 24 -148 30 -158 33 -158 47 0 17 -19 19 -25 2z m186 -88 c10 -6 19 -15 19 -20 0 -17 -26 -11 -45 10 -20 22 -7 27 26 10z m80 -183 c-5 -5 -17 -7 -26 -3 -14 5 -15 9 -5 21 10 12 16 13 27 4 9 -8 10 -16 4 -22z m-901 -734 c0 -242 -3 -374 -10 -367 -5 5 -11 76 -12 158 -4 172 -5 174 -104 195 -33 6 -95 20 -139 31 -125 29 -218 49 -245 52 -20 2 -24 8 -21 28 5 35 16 39 75 25 206 -52 368 -86 392 -83 38 4 42 22 43 196 1 87 5 142 11 142 6 0 10 -132 10 -377z m220 -3 l0 -369 -37 -26 c-49 -32 -80 -31 -123 5 l-35 29 -5 218 c-3 120 -4 283 -2 361 3 131 5 143 20 137 9 -4 36 -12 58 -18 42 -10 42 -10 122 32 1 0 2 -165 2 -369z"/> <path d="M1476 868 c-21 -29 -20 -41 4 -63 41 -37 102 17 73 64 -16 26 -59 26 -77 -1z m54 -3 c4 3 10 -2 14 -10 3 -8 1 -15 -4 -15 -5 0 -6 -7 -3 -17 4 -11 3 -14 -5 -9 -7 4 -12 1 -13 -6 0 -10 -2 -10 -6 0 -2 6 -10 9 -16 5 -6 -4 -8 0 -4 10 3 10 2 17 -3 17 -5 0 -7 7 -4 15 4 8 10 12 15 9 5 -3 9 1 10 8 0 10 2 10 6 0 2 -6 8 -10 13 -7z"/> <path d="M1480 720 c-11 -7 -1 -10 36 -10 49 0 51 -1 46 -25 -5 -26 -22 -29 -30 -5 -3 7 0 10 7 6 6 -4 11 -3 11 1 0 5 -18 9 -39 10 -38 2 -40 1 -46 -35 -3 -21 -6 -71 -7 -112 0 -41 -5 -78 -10 -81 -16 -10 0 -29 23 -29 11 0 29 5 39 10 13 7 21 7 25 -1 10 -16 2 -20 -45 -22 -31 -1 -46 4 -56 18 -12 16 -14 16 -14 2 0 -22 31 -37 78 -37 46 0 58 12 60 60 2 19 5 42 7 51 3 9 -1 16 -10 16 -14 0 -19 -15 -16 -44 2 -11 -36 -43 -51 -43 -18 0 -6 28 15 35 l22 8 -22 4 c-33 6 -35 66 -5 90 15 12 15 12 -2 6 -13 -4 -17 -2 -14 8 3 8 1 22 -4 32 -5 11 -5 17 2 17 5 0 10 6 10 14 0 8 5 18 11 21 6 4 9 0 7 -8 -2 -9 6 -23 17 -31 11 -8 17 -18 12 -22 -4 -4 -13 -2 -19 4 -26 26 -30 10 -4 -17 15 -15 26 -34 24 -41 -2 -8 5 -16 15 -18 15 -3 16 0 7 23 -8 20 -6 40 5 78 11 37 12 54 4 64 -13 15 -67 17 -89 3z"/> <path d="M1482 310 c-27 -26 -28 -44 -2 -70 25 -25 42 -25 63 -2 23 26 21 58 -5 76 -28 20 -30 20 -56 -4z m54 -42 c-7 -5 -7 -8 -1 -8 6 0 4 -4 -4 -9 -9 -6 -19 -3 -30 8 -14 14 -14 18 -1 31 13 13 17 13 31 0 10 -10 12 -17 5 -22z"/> <path d="M1336 1577 c-15 -11 -17 -30 -17 -132 0 -101 2 -121 17 -132 9 -7 21 -10 25 -7 11 7 12 284 1 284 -5 0 -16 -6 -26 -13z"/> <path d="M2346 1501 c-2 -9 -7 -32 -11 -51 -4 -19 -9 -42 -11 -51 -5 -17 -1 -16 234 57 21 6 13 24 -10 24 -13 0 -62 9 -110 19 -80 16 -88 17 -92 2z"/> <path d="M1596 1492 c-3 -5 5 -19 18 -31 13 -13 26 -18 30 -13 3 5 -5 19 -18 31 -13 13 -26 18 -30 13z"/> <path d="M2465 1408 c-49 -16 -96 -31 -104 -34 -8 -2 -11 -7 -8 -11 11 -10 207 51 207 64 0 7 -1 12 -2 12 -2 -1 -43 -15 -93 -31z"/> <path d="M465 1389 c-4 -11 -18 -24 -31 -30 -26 -9 -24 -29 2 -29 8 0 20 -11 26 -25 6 -14 14 -25 18 -25 4 0 12 11 18 25 6 14 18 25 26 25 26 0 28 20 2 29 -13 6 -27 19 -31 30 -3 12 -10 21 -15 21 -5 0 -12 -9 -15 -21z m29 -24 c3 -8 13 -15 23 -15 16 -1 16 -2 -2 -12 -11 -6 -23 -16 -27 -22 -6 -8 -10 -8 -15 0 -5 6 -17 16 -28 22 -18 10 -18 11 -2 12 10 0 20 7 23 15 4 8 10 15 14 15 4 0 10 -7 14 -15z"/> <path d="M2475 1370 l-60 -17 58 -12 c32 -7 60 -11 62 -9 9 8 16 58 9 57 -5 -1 -36 -9 -69 -19z"/> <path d="M933 1365 l-172 -10 -122 -142 c-97 -113 -128 -143 -148 -143 -14 0 -44 -9 -67 -21 -127 -61 -129 -255 -4 -319 52 -26 134 -27 176 -1 l32 19 23 -24 c12 -13 26 -21 31 -16 4 4 11 42 14 83 7 83 -11 168 -45 210 -29 36 -34 18 -9 -37 13 -29 23 -78 26 -121 4 -70 4 -73 -17 -73 -12 0 -48 -9 -79 -19 -89 -30 -148 -11 -196 63 -20 31 -25 48 -21 78 9 72 55 131 114 145 14 3 38 13 53 21 25 15 31 15 63 -1 20 -9 51 -17 70 -17 34 0 36 -3 67 -71 31 -71 32 -71 66 -65 l34 5 -4 -50 c-3 -46 -1 -50 22 -55 14 -3 70 -17 124 -30 54 -14 101 -23 103 -21 2 3 -8 12 -23 22 -66 43 -234 179 -234 189 0 6 18 25 39 43 l38 31 198 -154 c109 -85 201 -154 204 -154 3 0 5 63 3 139 l-3 140 -95 22 c-86 20 -93 23 -81 38 18 20 11 42 -10 34 -12 -5 -14 -1 -9 15 4 13 -1 37 -14 63 l-22 41 27 28 c22 23 26 35 23 76 l-3 49 -172 -10z m155 -39 c3 -3 -2 -14 -10 -23 -9 -10 -23 -33 -33 -51 -16 -33 -16 -36 5 -88 22 -52 22 -84 0 -84 -6 0 -28 37 -49 83 -22 45 -46 91 -55 102 -9 11 4 -22 29 -72 25 -51 45 -99 45 -107 0 -8 15 -17 35 -20 19 -4 39 -14 44 -24 5 -9 42 -28 83 -42 l73 -25 3 -83 c3 -83 3 -84 -20 -77 -13 4 -34 17 -48 29 -14 13 -37 31 -51 42 -15 10 -72 54 -128 97 -57 42 -111 77 -122 77 -11 0 -39 -18 -64 -41 l-44 -41 -31 61 c-43 85 -46 76 -4 -15 36 -79 40 -94 25 -94 -5 0 -17 20 -26 44 -9 24 -32 58 -51 75 -19 18 -34 39 -34 48 0 45 115 142 210 176 40 15 41 16 10 11 -19 -3 -56 -18 -82 -31 -61 -33 -155 -124 -160 -153 -3 -26 -17 -34 -37 -21 -9 6 -10 14 -5 23 11 18 93 115 150 177 l41 44 99 5 c54 2 100 5 102 7 5 5 94 -3 100 -9z"/> <path d="M1129 1378 c0 -2 -3 -21 -5 -43 l-5 -40 40 40 c23 21 41 40 41 42 0 4 -70 4 -71 1z"/> <path d="M1390 1315 c0 -13 23 -15 156 -15 120 0 155 3 152 13 -4 9 -46 13 -156 15 -131 2 -152 0 -152 -13z"/> <path d="M1254 1287 c-30 -28 -37 -42 -41 -83 -4 -40 0 -55 19 -84 41 -61 58 -65 298 -65 232 0 260 5 295 58 35 55 31 116 -11 166 -35 42 -50 29 -19 -17 38 -56 35 -109 -11 -156 -30 -31 -41 -36 -64 -31 -16 3 -31 2 -35 -4 -7 -13 -295 -15 -295 -3 0 4 -25 13 -56 20 -71 14 -93 40 -94 106 0 43 4 53 35 82 19 18 31 35 25 39 -5 3 -26 -9 -46 -28z"/> <path d="M563 1266 c-9 -10 -8 -17 5 -29 14 -15 16 -15 27 0 10 13 10 20 -1 30 -15 16 -16 16 -31 -1z"/> <path d="M2299 1268 c-9 -36 -26 -124 -24 -126 1 -2 40 -2 85 0 l82 3 -71 63 c-39 35 -71 62 -72 60z"/> <path d="M2402 1210 c40 -34 82 -68 92 -77 21 -17 72 -21 124 -9 53 12 116 -37 107 -84 -4 -19 -3 -21 5 -10 8 13 10 13 10 -2 0 -10 -4 -18 -10 -18 -5 0 -10 -10 -10 -22 -1 -41 -65 -98 -111 -98 -15 0 -31 -5 -35 -11 -5 -9 8 -10 45 -7 62 6 103 40 124 102 22 65 2 115 -62 154 -29 17 -45 20 -102 15 l-68 -6 -76 67 c-42 36 -83 66 -91 66 -8 0 18 -27 58 -60z"/> <path d="M1111 1208 c-1 -37 3 -58 10 -58 6 0 9 -7 6 -15 -4 -8 -1 -17 5 -21 8 -5 9 4 4 32 -26 131 -23 125 -25 62z"/> <path d="M1459 1238 c-3 -15 -3 -44 1 -65 l8 -38 1 38 c0 20 6 37 11 37 6 0 10 5 10 11 0 5 -4 8 -9 4 -5 -3 -11 5 -13 17 -3 21 -4 21 -9 -4z"/> <path d="M2450 1218 c52 -43 55 -44 62 -24 11 38 8 43 -29 50 -21 3 -49 9 -63 13 -18 5 -11 -6 30 -39z"/> <path d="M411 1227 c-6 -15 -23 -32 -38 -38 l-28 -11 31 -13 c17 -7 34 -23 38 -36 l7 -24 11 28 c5 16 20 30 34 33 13 3 24 10 24 14 0 4 -11 11 -24 14 -14 3 -28 17 -34 33 l-10 28 -11 -28z"/> <path d="M1312 1192 l-2 -52 35 14 c19 8 35 11 35 5 0 -5 3 -9 8 -9 4 0 7 18 7 40 1 22 -3 40 -7 40 -4 0 -8 -11 -8 -23 0 -16 -9 -28 -25 -35 -35 -16 -33 -17 -38 31 -3 40 -4 40 -5 -11z"/> <path d="M1563 1193 c1 -24 5 -43 10 -43 4 0 7 4 7 9 0 5 5 22 12 38 l12 28 7 -40 7 -40 -2 39 c-1 45 -20 59 -32 24 l-8 -23 -7 25 c-6 19 -7 15 -6 -17z"/> <path d="M1651 1193 c-1 -24 4 -43 9 -43 6 0 10 7 10 16 0 8 6 25 12 37 12 21 13 20 19 -18 l7 -40 -2 39 c-1 45 -24 61 -34 25 l-6 -24 -7 25 c-6 20 -7 17 -8 -17z"/> <path d="M1737 1212 c-18 -20 -23 -62 -8 -62 5 0 12 7 15 16 9 24 7 31 -4 14 -8 -13 -10 -13 -10 2 0 23 17 32 24 12 11 -29 6 -77 -11 -96 -9 -10 -11 -18 -6 -18 22 0 36 33 35 82 -1 60 -12 76 -35 50z"/> <path d="M1410 1205 c-14 -17 -4 -39 16 -31 20 7 17 -4 -3 -20 -10 -7 -13 -14 -7 -14 16 0 37 27 30 39 -4 6 -13 8 -21 4 -21 -7 -19 14 3 26 9 6 12 11 6 11 -6 0 -17 -7 -24 -15z"/> <path d="M1500 1200 c-16 -30 4 -64 30 -50 11 6 20 16 20 22 0 6 -9 3 -20 -7 -19 -18 -20 -17 -20 2 0 12 7 23 15 27 19 7 20 26 0 26 -8 0 -19 -9 -25 -20z"/> <path d="M2333 1028 l-10 -43 -8 33 c-4 17 -11 32 -16 32 -13 0 -11 -10 10 -49 10 -19 20 -30 23 -25 8 13 21 94 15 94 -2 0 -9 -19 -14 -42z"/> <path d="M2441 1052 c-1 -13 -5 -20 -11 -17 -6 4 -9 -10 -9 -37 l2 -43 7 35 7 35 2 -32 c0 -18 5 -33 9 -33 4 0 6 16 4 35 -3 25 0 35 9 35 10 0 10 3 3 8 -6 4 -14 14 -17 22 -3 10 -6 7 -6 -8z"/> <path d="M2245 1008 c10 -37 35 -65 35 -41 0 4 3 19 5 33 l6 25 -12 -25 -12 -25 -9 38 c-6 20 -14 37 -18 37 -4 0 -2 -19 5 -42z"/> <path d="M2523 1034 c-5 -13 -7 -13 -14 -2 -6 8 -8 -4 -8 -32 l0 -45 18 39 c14 32 19 36 24 22 4 -10 7 -27 8 -39 0 -12 3 -16 6 -9 2 6 9 9 15 6 6 -4 14 0 19 7 14 23 10 34 -5 14 -13 -18 -15 -17 -29 18 -17 41 -25 45 -34 21z"/> <path d="M2387 1026 c-12 -12 -17 -13 -20 -3 -9 20 -6 -15 3 -43 7 -23 8 -23 9 -3 1 12 8 29 17 38 9 9 14 18 11 21 -2 3 -12 -2 -20 -10z"/> <path d="M2582 1028 c-7 -7 -12 -17 -12 -22 0 -6 5 -3 11 8 15 25 29 4 29 -46 0 -27 -6 -41 -22 -52 -18 -13 -19 -16 -6 -16 25 0 39 35 36 87 -3 48 -15 62 -36 41z"/> <path d="M1878 977 l-208 -51 0 -322 0 -322 138 35 c204 51 214 54 209 60 -3 3 -73 -12 -156 -32 -82 -21 -156 -35 -163 -32 -12 4 -15 58 -16 301 l-2 296 27 11 c16 6 44 13 63 15 19 2 57 11 85 19 82 23 182 45 209 45 21 0 25 -5 31 -47 10 -78 14 -298 5 -313 -5 -9 -19 -11 -44 -6 -27 5 -38 3 -42 -7 -3 -8 -18 -17 -35 -21 -27 -5 -42 -26 -19 -26 6 0 10 -7 10 -16 0 -12 5 -10 19 7 11 13 23 20 28 16 4 -5 0 -13 -10 -18 -23 -14 -22 -28 3 -22 16 4 20 14 21 47 l2 41 6 -40 c6 -35 8 -37 14 -17 5 12 17 22 28 22 16 0 19 -7 19 -40 0 -51 -20 -53 -21 -2 l-1 37 -20 -44 c-13 -30 -23 -40 -28 -31 -6 9 -10 8 -18 -6 -6 -11 -14 -15 -19 -10 -4 5 -2 11 5 13 20 7 14 22 -7 16 -11 -3 -22 -15 -24 -27 -3 -12 -5 -4 -7 19 l-3 40 -7 -40 -7 -40 -2 36 c0 20 -4 51 -7 69 -7 30 -5 32 16 25 15 -5 20 -4 16 4 -11 17 -28 13 -57 -15 -27 -26 -67 -35 -146 -34 -33 0 -45 -4 -54 -21 -14 -26 -6 -96 13 -115 14 -14 24 -12 103 16 26 9 45 2 45 -16 0 -12 4 -12 20 -4 20 11 27 59 14 94 -7 20 -24 11 -24 -12 0 -15 2 -15 11 -2 9 12 10 12 5 -3 -3 -10 -6 -21 -6 -23 0 -2 -4 -4 -10 -4 -17 0 -11 47 9 71 24 30 32 22 38 -33 6 -53 -10 -96 -39 -108 -21 -9 -21 -9 7 -7 21 1 34 10 42 28 17 34 27 41 95 63 47 16 60 17 73 6 13 -11 15 10 15 197 0 234 -7 334 -24 332 -6 -1 -104 -24 -218 -52z m-115 -436 c-13 -11 -23 -25 -23 -32 0 -10 3 -10 12 -1 22 22 32 12 10 -11 -28 -29 -29 -46 -2 -22 30 27 34 12 5 -15 -14 -13 -27 -22 -29 -19 -2 2 -6 28 -8 57 -4 41 -2 52 8 48 7 -3 16 -1 19 4 4 6 12 10 18 10 7 -1 2 -9 -10 -19z m96 -34 l-2 -42 -6 40 c-6 38 -7 39 -19 18 -6 -12 -12 -31 -12 -42 0 -11 -4 -22 -9 -25 -12 -8 -21 76 -10 89 6 5 9 1 9 -10 0 -18 1 -18 16 3 21 31 34 19 33 -31z"/> <path d="M846 991 c-6 -10 27 -39 199 -173 64 -49 127 -90 150 -97 21 -6 40 -9 42 -7 5 4 -356 281 -371 284 -8 2 -17 -1 -20 -7z"/> <path d="M2535 923 c-11 -8 -27 -18 -35 -23 -12 -7 -10 -12 10 -29 34 -28 37 -27 45 20 8 48 6 52 -20 32z"/> <path d="M402 918 c-16 -16 -15 -45 1 -55 17 -11 130 -13 144 -1 7 6 14 5 18 -2 10 -16 40 -12 60 10 17 19 17 21 0 40 -20 22 -45 26 -63 8 -8 -8 -15 -8 -27 2 -11 9 -22 10 -38 3 -12 -6 -31 -7 -42 -2 -29 11 -39 11 -53 -3z m48 -28 c0 -13 -7 -20 -20 -20 -13 0 -20 7 -20 20 0 13 7 20 20 20 13 0 20 -7 20 -20z m80 1 c0 -11 -4 -22 -8 -25 -14 -9 -35 12 -29 28 9 23 37 20 37 -3z m86 8 c3 -6 0 -17 -7 -25 -18 -17 -44 -2 -36 20 7 18 33 21 43 5z"/> <path d="M2130 699 c2 -247 10 -215 -77 -309 l-32 -35 43 -1 c41 -1 44 1 66 43 l23 43 26 -17 c14 -9 44 -28 65 -42 22 -15 41 -21 43 -15 3 9 120 193 128 203 2 1 14 -4 27 -13 15 -10 17 -16 8 -16 -13 0 -13 -2 -1 -9 8 -5 20 -7 28 -4 23 9 14 -10 -24 -52 l-38 -40 41 38 c42 39 42 39 69 21 25 -17 28 -17 57 0 l30 18 37 -36 c20 -20 40 -36 45 -36 4 0 -6 12 -23 26 -37 31 -59 67 -39 63 7 -2 28 5 46 15 19 9 35 16 36 14 1 -2 0 -33 -2 -70 -3 -61 -6 -68 -25 -69 -12 -1 -84 -2 -159 -3 -102 -1 -139 2 -143 12 -8 21 -25 13 -25 -13 l0 -25 185 0 185 0 0 99 c0 55 3 106 6 115 5 14 -10 16 -126 16 -101 0 -131 -3 -128 -12 4 -10 29 -12 94 -10 49 1 97 5 107 8 31 10 18 -4 -55 -60 l-72 -54 -67 46 -67 46 26 40 c14 23 38 60 53 83 l29 41 -63 39 -63 40 -98 -156 c-55 -85 -101 -165 -104 -176 -8 -33 48 25 88 92 19 32 39 63 45 69 5 6 24 34 40 62 30 52 52 63 85 42 13 -8 12 -13 -4 -42 -38 -65 -166 -266 -185 -289 l-18 -23 -28 22 c-15 12 -34 22 -41 22 -16 0 -19 16 -4 25 6 4 10 83 10 204 l0 197 -30 23 -31 22 1 -222z"/> <path d="M1962 891 c-7 -4 -24 -6 -38 -3 -13 2 -35 -3 -49 -12 -20 -13 -25 -25 -25 -56 0 -42 12 -58 82 -106 62 -43 53 -21 -12 29 -49 39 -60 52 -60 77 0 41 40 68 76 51 20 -9 28 -8 40 4 32 32 94 5 94 -40 0 -11 -18 -45 -41 -78 -52 -74 -44 -87 9 -15 53 69 59 96 32 131 -16 21 -30 27 -58 27 -20 0 -43 -4 -50 -9z"/> <path d="M2204 888 c-9 -14 41 -19 150 -16 159 4 147 23 -15 23 -72 0 -133 -3 -135 -7z"/> <path d="M1736 844 c-3 -9 -6 -44 -6 -79 0 -71 20 -106 46 -84 18 15 19 150 2 167 -17 17 -35 15 -42 -4z m34 -80 c0 -54 -4 -83 -10 -79 -5 3 -10 42 -10 86 0 46 4 79 10 79 6 0 10 -35 10 -86z"/> <path d="M2293 832 c-2 -11 -13 -22 -24 -25 -22 -6 -26 -27 -4 -27 8 0 19 -9 25 -20 6 -11 15 -20 19 -20 5 0 11 9 14 20 3 11 12 20 21 20 23 0 20 7 -15 42 -28 29 -30 30 -36 10z m30 -54 c-14 -15 -16 -15 -31 0 -15 15 -15 19 -2 32 13 13 17 13 31 0 14 -13 14 -17 2 -32z"/> <path d="M2565 730 c-3 -11 -13 -20 -21 -20 -8 0 -14 -4 -14 -10 0 -5 6 -10 14 -10 8 0 18 -9 21 -20 8 -24 25 -27 25 -4 0 9 9 18 20 21 24 6 27 23 4 23 -9 0 -18 9 -21 20 -3 11 -9 20 -13 20 -5 0 -12 -9 -15 -20z"/> <path d="M2240 701 c0 -8 -6 -19 -14 -25 -11 -9 -11 -13 3 -26 14 -13 18 -13 32 1 15 15 15 18 -2 40 -11 14 -19 18 -19 10z"/> <path d="M313 660 c-36 -22 -64 -68 -65 -108 -1 -44 28 -100 64 -122 31 -18 50 -20 261 -20 140 0 227 4 227 10 0 5 -7 7 -15 4 -8 -3 -20 -2 -27 3 -7 4 -102 8 -210 8 -184 0 -199 2 -225 21 -15 12 -32 35 -37 53 -5 17 -13 31 -17 31 -5 0 -9 7 -9 15 0 23 22 65 32 59 5 -3 7 0 6 8 -2 7 3 12 10 10 8 -1 11 2 8 7 -8 13 50 35 71 26 27 -11 413 -17 413 -6 0 18 -35 21 -243 21 -193 0 -215 -2 -244 -20z"/> <path d="M850 610 c0 -5 9 -14 20 -20 34 -18 27 -77 -12 -111 -23 -20 -28 -28 -17 -29 9 0 23 9 30 20 9 14 47 30 109 49 63 19 88 30 75 34 -11 3 -55 13 -98 22 -46 10 -81 23 -84 31 -6 16 -23 19 -23 4z"/> <path d="M598 558 c-3 -29 -1 -57 4 -62 5 -6 8 -6 8 1 0 8 12 10 35 6 35 -6 35 -5 29 26 -4 20 -3 31 5 31 6 0 11 4 11 9 0 17 -49 9 -55 -10 -11 -33 -24 -21 -18 16 3 21 2 35 -5 35 -5 0 -12 -24 -14 -52z m58 -45 c-3 -3 -12 -3 -21 1 -14 5 -14 8 2 30 l18 24 3 -25 c2 -14 1 -27 -2 -30z"/> <path d="M346 584 c-25 -24 -19 -44 15 -51 l31 -6 -23 -13 c-13 -7 -18 -13 -11 -14 7 0 22 5 33 10 17 10 19 7 20 -27 1 -27 3 -31 6 -13 3 14 19 40 36 58 17 17 27 33 21 34 -42 7 -64 2 -64 -13 0 -13 -6 -15 -32 -10 -39 8 -43 30 -8 48 17 9 20 13 8 13 -9 0 -24 -7 -32 -16z"/> <path d="M495 557 c-13 -21 -14 -30 -5 -47 11 -21 12 -21 31 -4 22 20 26 32 4 14 -8 -6 -19 -8 -26 -4 -8 5 -4 12 12 25 18 14 21 21 12 30 -8 8 -15 5 -28 -14z"/> <path d="M562 558 c-10 -23 -13 -58 -4 -58 3 0 11 8 18 18 15 19 19 62 6 62 -5 0 -14 -10 -20 -22z"/> <path d="M702 560 c-6 -11 -12 -30 -11 -42 0 -18 4 -14 18 17 l18 40 7 -37 c7 -40 26 -45 51 -12 13 18 14 17 15 -18 0 -26 -7 -44 -22 -58 -18 -16 -19 -20 -5 -20 9 0 21 9 27 19 13 26 13 118 0 126 -12 8 -40 -12 -40 -28 0 -6 7 -2 15 9 8 10 15 14 15 8 0 -5 -7 -19 -15 -30 -14 -18 -15 -18 -27 14 -14 37 -28 41 -46 12z"/> <path d="M989 474 c-140 -45 -168 -57 -172 -76 -4 -12 -5 -23 -4 -24 1 -2 98 27 214 64 117 37 209 70 205 73 -4 4 -23 9 -42 12 -26 4 -79 -9 -201 -49z"/> <path d="M1160 434 c-58 -19 -154 -50 -215 -69 -85 -25 -104 -35 -85 -39 14 -3 116 -28 228 -54 l202 -49 0 124 c0 92 -3 123 -12 122 -7 -1 -60 -17 -118 -35z m98 -83 c2 -35 -1 -68 -6 -73 -7 -7 -158 22 -245 48 -18 6 -18 6 0 18 10 7 38 18 63 25 25 8 68 22 95 32 81 30 89 25 93 -50z"/> <path d="M2140 385 c0 -18 23 -45 39 -45 26 0 32 -10 20 -32 -6 -11 -17 -17 -25 -14 -12 4 -12 2 -4 -15 15 -27 47 -21 68 13 16 26 15 28 -3 42 -33 24 -95 58 -95 51z"/> <path d="M2284 326 c-28 -28 -34 -41 -34 -78 0 -50 19 -82 62 -104 90 -46 197 53 158 147 -19 45 -56 69 -107 69 -38 0 -50 -5 -79 -34z m139 4 c14 -11 31 -36 37 -55 24 -74 -51 -149 -125 -125 -116 38 -90 199 31 200 17 0 43 -9 57 -20z"/> <path d="M2290 267 c0 -36 14 -51 30 -32 11 13 11 16 0 13 -7 -2 -15 3 -17 10 -4 9 1 13 13 10 11 -2 20 -13 22 -25 3 -23 35 -28 59 -11 6 5 14 5 18 -2 7 -12 25 -4 25 11 0 6 -5 7 -12 3 -8 -5 -9 -2 -4 11 5 14 4 16 -7 7 -10 -9 -17 -8 -26 1 -9 9 -14 9 -20 -2 -6 -9 -10 -9 -12 -2 -2 6 -19 15 -36 20 -30 9 -33 8 -33 -12z"/> <path d="M2564 326 c-27 -27 -34 -42 -34 -74 0 -117 155 -152 205 -46 35 73 -19 154 -103 154 -25 0 -43 -9 -68 -34z m106 -16 c8 -11 20 -20 27 -20 19 0 15 -61 -5 -85 -24 -29 -47 -36 -79 -24 -29 10 -53 49 -52 83 0 21 0 21 8 1 5 -11 7 -23 5 -26 -2 -4 3 -12 11 -19 13 -10 15 -10 11 1 -2 8 -7 26 -10 42 -6 24 -4 27 21 27 24 1 26 2 10 11 -9 6 -15 14 -12 20 11 16 50 10 65 -11z"/> <path d="M2600 259 c0 -12 4 -17 11 -13 7 4 9 0 5 -14 -5 -16 -1 -20 23 -24 17 -2 28 -1 25 4 -3 4 -11 8 -19 8 -7 0 -16 14 -20 30 -7 34 -25 41 -25 9z"/> <path d="M410 271 c0 -33 4 -62 8 -65 13 -8 92 47 92 64 0 17 -61 60 -85 60 -12 0 -15 -13 -15 -59z"/> <path d="M577 323 c-14 -13 -7 -103 7 -109 19 -7 86 37 86 56 0 8 -16 25 -35 38 -37 23 -47 26 -58 15z m78 -53 c0 -6 -15 -20 -32 -31 l-33 -21 0 52 0 52 33 -21 c17 -11 32 -25 32 -31z"/> <path d="M750 270 c0 -45 7 -49 41 -20 l24 20 -24 20 c-34 29 -41 25 -41 -20z"/> <path d="M2018 285 c-2 -3 -3 -19 0 -35 4 -30 22 -36 30 -10 3 8 0 10 -8 5 -10 -6 -12 -1 -8 19 5 24 -1 33 -14 21z"/> <path d="M2056 255 c7 -37 11 -42 25 -28 13 13 4 47 -10 39 -5 -4 -12 0 -15 6 -3 7 -3 0 0 -17z"/> <path d="M1954 228 c9 -49 57 -88 107 -88 33 0 47 6 75 34 34 34 45 76 20 76 -7 0 -16 -13 -19 -28 -7 -34 -55 -62 -93 -54 -28 5 -64 46 -64 73 0 11 -7 19 -16 19 -13 0 -15 -7 -10 -32z"/> </g> </svg> 