 <svg  version="1.0" xmlns="http://www.w3.org/2000/svg"  width="227.000000pt" height="300.000000pt" viewBox="0 0 227.000000 300.000000"  preserveAspectRatio="xMidYMid meet">  <g transform="translate(0.000000,300.000000) scale(0.100000,-0.100000)" fill="#f0bf4c" stroke="none"> <path d="M212 2891 c-66 -26 -124 -88 -144 -153 -17 -51 -18 -134 -18 -1146 l0 -1092 1066 -2 c586 -2 1068 -1 1070 1 2 2 4 496 4 1096 0 931 -2 1099 -15 1134 -8 22 -12 41 -10 41 6 0 -31 44 -60 72 -25 25 -63 51 -84 57 -9 3 -410 6 -891 8 -816 2 -878 1 -918 -16z m1816 -27 c20 -8 52 -29 69 -46 66 -64 63 -10 61 -1208 l-3 -1085 -1035 0 -1035 0 -3 1085 c-2 980 -1 1089 14 1128 22 58 60 101 109 123 38 18 88 19 913 19 766 0 877 -2 910 -16z"/> <path d="M290 1748 l0 -943 52 -30 c52 -31 116 -101 139 -155 l14 -30 727 -2 c698 -3 728 -2 728 15 0 22 -18 59 -34 69 -6 4 -311 8 -677 8 l-665 0 -17 36 c-22 45 -97 126 -139 148 l-33 18 3 851 c2 469 0 867 -3 885 -7 39 -40 72 -72 72 l-23 0 0 -942z m54 878 c10 -16 12 -27 5 -31 -7 -5 -6 -12 2 -22 10 -12 10 -17 -2 -25 -8 -5 -10 -11 -4 -14 7 -3 7 -88 2 -251 -5 -137 -5 -498 -2 -803 4 -305 7 -563 6 -574 0 -10 35 -54 77 -97 42 -43 96 -98 119 -123 l42 -46 657 -2 c511 -2 658 -6 661 -15 4 -10 -141 -13 -677 -15 -375 -2 -684 1 -687 5 -3 5 -11 6 -18 3 -8 -3 -18 7 -25 25 -7 16 -17 26 -23 22 -6 -4 -8 0 -5 9 4 8 -2 21 -13 29 -10 7 -19 19 -19 26 0 7 -6 12 -13 11 -6 -2 -11 2 -10 9 2 6 -6 15 -17 18 -11 4 -20 11 -20 16 0 5 -9 9 -20 9 -11 0 -20 5 -20 10 0 6 -7 10 -15 10 -8 0 -15 5 -15 11 0 5 6 7 13 3 9 -6 9 -5 0 7 -10 12 -13 219 -13 917 0 524 4 902 9 902 5 0 16 -11 25 -24z"/> <path d="M405 2660 c-4 -6 16 -10 54 -10 58 0 60 -1 63 -27 4 -25 5 -26 13 -9 13 29 -27 56 -81 56 -23 0 -46 -4 -49 -10z"/> <path d="M575 2660 c-4 -6 8 -10 29 -10 19 0 38 5 41 10 4 6 -8 10 -29 10 -19 0 -38 -4 -41 -10z"/> <path d="M664 2576 c16 -110 26 -242 26 -353 0 -75 4 -123 10 -123 6 0 10 8 10 18 0 27 51 102 95 141 22 19 63 45 92 58 48 22 53 27 47 51 -17 76 -39 124 -73 159 -44 46 -87 68 -159 81 l-54 10 6 -42z m127 -32 c32 -16 87 -77 100 -111 16 -43 11 -63 -22 -81 -17 -9 -53 -34 -80 -55 -34 -27 -50 -35 -53 -25 -9 26 -27 279 -21 289 7 11 34 5 76 -17z"/> <path d="M548 2583 c-21 -5 -21 1 -4 -98 8 -44 22 -154 32 -245 16 -150 24 -179 47 -180 26 0 -21 520 -48 526 -6 1 -18 0 -27 -3z"/> <path d="M1395 2377 c-27 -14 -65 -41 -84 -60 l-34 -36 31 -25 c78 -66 128 -196 119 -307 l-6 -67 47 -6 c176 -23 332 146 292 315 -17 69 -66 138 -123 173 -68 42 -171 47 -242 13z m186 -29 c44 -13 101 -63 125 -110 9 -16 18 -54 21 -82 7 -64 -24 -142 -72 -185 -37 -32 -122 -64 -157 -59 -21 3 -24 10 -29 73 -11 115 -40 189 -111 277 -19 24 -19 29 -7 44 39 47 148 67 230 42z"/> <path d="M1005 2373 c-47 -12 -37 -23 15 -17 57 6 151 -12 206 -41 36 -18 46 -9 16 15 -39 32 -178 57 -237 43z"/> <path d="M806 2104 c-25 -25 -20 -71 10 -91 24 -15 29 -15 53 -2 16 9 27 25 29 43 6 53 -55 87 -92 50z"/> <path d="M707 2083 c-11 -10 -8 -131 3 -138 6 -4 10 22 10 69 0 76 -1 82 -13 69z"/> <path d="M600 2016 c0 -19 4 -37 9 -40 11 -7 23 37 15 58 -11 28 -24 17 -24 -18z"/> <path d="M957 2021 c-52 -46 -80 -120 -75 -198 5 -83 29 -117 85 -121 34 -3 45 2 70 27 51 50 68 97 68 183 0 62 -4 82 -21 105 -31 42 -82 43 -127 4z m88 -25 c13 -9 20 -30 23 -69 7 -93 -55 -199 -107 -182 -80 25 -29 254 60 264 3 1 13 -5 24 -13z"/> <path d="M1200 2020 c-24 -24 -25 -48 -4 -78 19 -28 57 -29 84 -2 26 26 25 50 0 78 -26 27 -54 28 -80 2z"/> <path d="M589 1939 c-14 -14 -19 -33 -19 -71 0 -103 46 -220 121 -309 38 -47 38 -47 15 -53 -22 -5 -25 -13 -31 -83 -3 -43 -13 -145 -21 -226 -9 -82 -14 -151 -11 -153 12 -12 142 -15 203 -5 113 20 209 66 275 132 91 91 159 247 159 367 0 48 -2 53 -27 63 -16 6 -80 18 -143 25 -135 17 -233 45 -294 86 -34 22 -52 44 -78 101 -59 123 -109 166 -149 126z m63 -56 c9 -10 32 -50 51 -89 20 -39 51 -84 69 -99 68 -57 200 -99 348 -111 47 -4 93 -11 103 -16 40 -21 7 -175 -63 -292 -39 -65 -107 -125 -177 -156 -111 -49 -277 -68 -290 -34 -3 9 -1 87 6 173 16 194 17 198 36 227 22 34 20 41 -31 117 -53 79 -93 183 -94 243 0 56 14 69 42 37z"/> <path d="M1386 1805 c-16 -31 -55 -80 -88 -110 -58 -54 -59 -77 -2 -33 65 50 146 170 127 189 -4 4 -21 -15 -37 -46z"/> <path d="M605 1337 c0 -144 3 -233 6 -197 9 93 10 460 2 460 -5 0 -8 -118 -8 -263z"/> <path d="M1600 1464 c-36 -7 -96 -29 -135 -48 -68 -34 -185 -127 -185 -148 0 -25 179 16 270 62 56 28 180 126 180 142 0 12 -55 9 -130 -8z m59 -31 c-45 -58 -219 -143 -291 -143 -37 0 -35 12 5 42 85 65 200 115 271 117 26 1 27 -1 15 -16z"/> <path d="M1305 1224 c-93 -13 -96 -22 -17 -57 83 -38 154 -50 245 -44 94 6 113 18 67 42 -86 45 -214 70 -295 59z m200 -50 l40 -19 -63 -3 c-64 -3 -155 19 -168 40 -11 18 146 3 191 -18z"/> <path d="M638 995 c-4 -16 -10 -47 -14 -68 l-7 -39 109 7 c60 4 165 11 233 16 243 18 772 8 899 -17 21 -4 22 -9 22 -102 1 -78 3 -94 13 -81 8 11 10 42 7 98 -5 75 -7 83 -35 106 -22 18 -37 23 -55 18 -30 -7 -14 -8 -233 8 -144 10 -218 10 -395 0 -119 -7 -288 -15 -374 -18 l-157 -5 -3 53 c-3 46 -4 50 -10 24z"/> <path d="M1335 1003 c-91 -5 -388 -43 -394 -49 -4 -4 17 -4 44 0 249 30 562 39 755 23 94 -8 95 -8 74 11 -18 17 -37 19 -220 19 -109 0 -226 -2 -259 -4z"/> <path d="M1093 853 c53 -2 141 -2 195 0 53 1 9 3 -98 3 -107 0 -151 -2 -97 -3z"/> <path d="M1428 843 c17 -2 47 -2 65 0 17 2 3 4 -33 4 -36 0 -50 -2 -32 -4z"/> <path d="M50 375 c0 -103 24 -175 79 -232 23 -24 41 -40 41 -36 0 4 5 2 12 -5 7 -7 20 -12 30 -12 10 0 18 -3 18 -7 0 -5 401 -8 890 -8 490 0 890 3 890 6 0 6 28 16 57 21 5 0 25 19 46 42 53 58 77 129 77 229 l0 82 -1070 0 -1070 0 0 -80z m2100 50 c9 -5 11 -31 8 -89 -7 -118 -46 -185 -130 -221 -33 -13 -144 -15 -900 -15 -578 0 -876 4 -901 11 -57 16 -111 69 -130 130 -18 56 -23 169 -7 185 11 11 2042 10 2060 -1z"/> <path d="M220 275 l0 -96 68 3 c59 3 67 5 67 23 0 17 -6 19 -42 17 l-43 -4 0 76 c0 74 -1 76 -25 76 -25 0 -25 0 -25 -95z"/> <path d="M375 278 l2 -93 71 -3 c67 -3 72 -1 72 18 0 17 -6 20 -50 20 -43 0 -50 3 -50 20 0 17 7 20 46 20 38 0 45 3 42 18 -3 13 -13 17 -43 17 -30 0 -41 4 -43 18 -3 14 4 17 47 17 44 0 51 3 51 20 0 18 -7 20 -74 20 l-74 0 3 -92z"/> <path d="M600 360 c0 -5 -13 -38 -29 -72 -45 -100 -47 -108 -17 -108 16 0 27 7 31 20 9 29 81 29 90 0 4 -13 15 -20 31 -20 13 0 24 3 24 7 0 4 -17 47 -37 95 -35 80 -41 88 -65 88 -16 0 -28 -4 -28 -10z m44 -66 c10 -26 7 -34 -14 -34 -21 0 -24 8 -14 34 8 20 20 20 28 0z"/> <path d="M750 276 c0 -96 0 -96 25 -96 20 0 25 5 25 25 0 15 6 25 15 25 8 0 22 -11 31 -25 10 -15 26 -25 40 -25 28 0 29 3 8 36 -15 23 -15 26 0 43 9 9 16 29 16 43 0 39 -33 61 -100 66 l-60 4 0 -96z m105 24 c0 -14 7 -28 15 -32 8 -3 -11 -5 -44 -3 -56 4 -92 15 -48 15 17 0 22 6 22 26 0 22 4 25 28 22 21 -2 27 -8 27 -28z"/> <path d="M940 276 c0 -96 0 -96 25 -96 23 0 25 4 25 44 0 25 -5 48 -12 52 -8 5 -9 2 -5 -9 3 -10 2 -17 -3 -17 -12 0 -12 17 -1 44 5 14 10 16 15 8 4 -7 5 -12 2 -12 -3 0 2 -8 12 -19 9 -10 30 -35 45 -55 15 -20 37 -36 47 -36 18 0 20 7 20 95 0 95 0 95 -25 95 -22 0 -25 -4 -25 -34 0 -41 9 -68 20 -61 4 3 10 -2 14 -10 4 -12 -3 -15 -29 -15 -33 0 -48 14 -24 22 17 6 -54 93 -79 96 -21 3 -22 1 -22 -92z"/> <path d="M1220 314 c0 -34 4 -53 10 -49 6 3 10 24 10 46 0 60 15 46 18 -17 2 -52 1 -56 -18 -51 -17 4 -20 0 -20 -29 l0 -34 70 0 c63 0 70 2 70 20 0 17 -7 20 -45 20 l-45 0 0 75 c0 73 -1 75 -25 75 -24 0 -25 -3 -25 -56z"/> <path d="M1399 341 c-82 -82 21 -204 122 -144 15 9 33 30 39 47 33 95 -89 169 -161 97z m133 -9 c9 -10 18 -30 20 -47 2 -23 -1 -30 -17 -33 -11 -2 -28 -11 -37 -19 -18 -16 -68 -11 -68 7 0 6 -12 10 -26 10 -24 0 -26 3 -20 32 7 36 22 57 51 69 27 11 76 1 97 -19z"/> <path d="M1428 328 c-18 -15 -31 -58 -17 -58 5 0 9 8 9 18 0 59 80 53 103 -8 4 -10 6 -8 6 7 2 41 -66 68 -101 41z"/> <path d="M1619 341 c-16 -16 -29 -40 -29 -53 1 -21 2 -20 14 7 24 56 68 74 119 50 19 -9 39 -26 45 -38 8 -17 11 -18 11 -5 1 9 -13 28 -30 42 -43 36 -91 35 -130 -3z"/> <path d="M1812 346 c2 -27 18 -37 18 -11 0 22 17 18 34 -7 23 -32 20 -38 -19 -38 l-35 0 0 -55 c0 -53 1 -55 26 -55 25 0 26 2 22 45 -2 25 0 45 3 45 3 0 14 -16 25 -35 10 -19 23 -35 29 -35 15 0 49 66 41 79 -5 7 -1 8 9 5 13 -5 15 -16 11 -55 -6 -47 -5 -49 19 -49 25 0 25 0 25 95 0 88 -1 95 -20 95 -10 0 -25 -10 -31 -22 -12 -23 -12 -23 9 -4 19 17 22 17 28 3 8 -23 -3 -37 -31 -37 -15 0 -31 -10 -41 -25 l-17 -26 -31 53 c-37 61 -78 79 -74 34z"/> <path d="M1648 329 c-10 -5 -18 -18 -18 -27 0 -13 3 -12 16 6 16 23 58 30 69 12 3 -5 12 -10 18 -10 7 0 3 7 -7 15 -23 17 -53 19 -78 4z"/> <path d="M1730 259 c0 -27 -37 -44 -66 -30 -13 6 -24 15 -24 21 0 5 -11 10 -25 10 -34 0 -32 -23 6 -54 19 -17 43 -26 64 -26 66 0 134 93 70 96 -18 1 -25 -3 -25 -17z"/> </g> </svg> 