<?xml version="1.0" standalone="no"?>
<!DOCTYPE svg PUBLIC "-//W3C//DTD SVG 20010904//EN"
 "http://www.w3.org/TR/2001/REC-SVG-20010904/DTD/svg10.dtd">
<svg version="1.0" xmlns="http://www.w3.org/2000/svg"
 width="300.000000pt" height="400.000000pt" viewBox="0 0 300.000000 400.000000"
 preserveAspectRatio="xMidYMid meet">
<metadata>
Created by potrace 1.10, written by Peter Selinger 2001-2011
</metadata>
<g transform="translate(0.000000,400.000000) scale(0.100000,-0.100000)"
fill="#000000" stroke="none">
<path d="M1556 2983 c-10 -3 -42 -20 -70 -38 -65 -41 -91 -92 -107 -208 -11
-83 -11 -89 8 -115 17 -22 18 -30 7 -40 -10 -9 -15 -9 -20 0 -4 7 -2 14 5 16
9 3 9 7 0 18 -18 22 -29 17 -29 -13 0 -30 57 -126 73 -120 5 1 32 -21 60 -50
l51 -54 70 2 c67 1 115 14 102 26 -3 3 2 12 12 19 17 12 -2 10 -88 -10 -19 -5
-21 -4 -6 2 28 12 2 26 -32 17 -24 -7 -25 -8 -8 -14 19 -7 19 -8 -1 -13 -14
-4 -24 0 -27 9 -4 8 -13 13 -21 9 -10 -4 -20 6 -29 29 -12 29 -21 36 -55 41
-28 4 -38 10 -34 20 3 8 0 14 -6 14 -6 0 -11 8 -11 18 0 11 3 13 8 5 4 -6 7
30 8 80 1 149 11 192 51 227 18 17 38 30 43 30 6 0 10 6 10 14 0 7 14 16 31
20 45 9 61 8 54 -4 -3 -6 1 -13 9 -16 9 -3 16 -10 16 -15 0 -4 -7 -6 -15 -3
-8 4 -15 2 -15 -4 0 -11 39 -24 52 -16 4 3 8 10 8 15 0 6 -6 7 -12 3 -10 -6
-10 -5 -1 7 9 11 8 18 -2 32 -10 14 -14 15 -18 5 -4 -9 -6 -9 -6 -1 -2 25 20
23 36 -4 11 -18 25 -27 36 -25 9 2 17 -2 17 -8 0 -7 8 -9 20 -5 14 4 20 2 20
-8 0 -8 11 -27 24 -42 14 -16 27 -37 30 -48 3 -14 -5 -9 -24 15 -16 19 -46 43
-65 53 -44 20 -59 13 -18 -8 62 -33 113 -117 113 -187 0 -20 5 -27 18 -26 12
1 18 -7 20 -29 2 -28 2 -29 -13 -11 -19 24 -28 16 -20 -17 7 -25 27 -30 44
-11 18 18 23 72 8 81 -8 5 -19 40 -26 88 -13 91 -42 147 -101 198 -56 47 -123
66 -184 50z"/>
<path d="M1493 2739 c-30 -9 -50 -25 -41 -34 2 -3 18 1 35 7 25 9 35 9 47 -1
26 -21 19 -28 -36 -37 l-53 -8 45 -6 c38 -6 40 -7 15 -10 -26 -2 -27 -3 -7 -7
31 -6 78 43 74 75 -2 12 -8 20 -13 17 -5 -4 -9 -1 -9 4 0 13 -13 13 -57 0z"/>
<path d="M1632 2723 c-3 -37 16 -53 64 -53 15 0 23 -4 19 -11 -4 -6 2 -5 14 3
19 12 19 13 3 20 -9 3 -32 7 -51 7 -34 1 -34 1 -15 22 18 20 28 20 81 3 14 -4
13 -1 -6 15 -17 15 -35 21 -65 19 -37 -1 -42 -4 -44 -25z"/>
<path d="M1552 2603 c-26 -10 1 -23 46 -23 45 0 98 18 62 21 -76 5 -97 6 -108
2z"/>
<path d="M1492 2577 c-25 -26 -28 -43 -9 -45 6 0 30 -3 52 -5 24 -3 43 0 48 7
5 8 10 7 17 -4 6 -10 10 -11 10 -2 0 14 46 17 54 3 9 -14 45 -1 57 21 8 15 7
23 -8 34 -27 20 -39 17 -19 -5 22 -24 8 -34 -36 -26 -18 3 -58 1 -88 -4 -73
-12 -88 -5 -59 25 12 13 18 24 12 24 -5 0 -19 -10 -31 -23z"/>
<path d="M1864 2546 c-3 -9 4 -60 16 -112 22 -97 21 -139 -6 -158 -12 -9 -11
-13 6 -24 17 -10 21 -10 24 0 2 7 9 32 16 55 9 30 10 46 2 55 -6 7 -17 53 -26
102 -17 95 -22 109 -32 82z"/>
<path d="M1570 2490 c0 -5 21 -10 48 -10 34 0 43 3 32 10 -20 13 -80 13 -80 0z"/>
<path d="M1750 2372 c0 -28 -9 -52 -32 -83 l-32 -44 38 33 c20 17 43 32 50 32
21 0 3 -66 -25 -96 -21 -23 -22 -24 -3 -24 11 0 26 6 33 13 11 10 13 7 8 -16
-2 -16 -1 -25 4 -20 9 9 17 43 19 88 1 26 3 27 10 10 8 -18 9 -18 9 -2 1 10
-5 20 -13 23 -8 3 -16 27 -20 54 -5 35 -13 53 -26 60 -18 10 -20 7 -20 -28z"/>
<path d="M1460 2380 c-22 -41 -14 -205 10 -220 6 -3 -13 -43 -40 -87 -40 -65
-52 -95 -60 -149 -9 -67 -25 -134 -37 -164 -7 -16 -10 -51 -14 -133 -2 -47 -3
-48 -28 -43 -14 3 -44 8 -66 11 -22 3 -47 13 -55 23 -8 10 -27 23 -42 30 -29
12 -38 32 -15 32 9 0 9 2 -1 8 -13 9 -6 42 9 42 5 0 9 10 9 23 0 12 7 35 15
51 8 15 15 35 15 43 0 8 5 11 12 7 6 -4 9 -3 6 2 -10 16 19 183 36 209 21 32
26 32 20 0 -2 -14 0 -25 6 -25 13 0 13 57 0 65 -6 4 -2 19 11 38 l21 32 -22
-25 c-38 -43 -69 -116 -105 -247 -19 -70 -44 -155 -55 -188 -23 -67 -21 -73
47 -97 18 -7 33 -19 33 -28 0 -12 14 -15 70 -16 38 0 71 -2 74 -5 2 -2 6 -18
8 -34 3 -28 1 -30 -37 -35 l-40 -6 43 -5 c30 -3 42 -1 42 8 0 7 3 13 8 13 13
0 8 -193 -6 -215 -12 -19 -13 -18 -8 8 3 15 9 38 12 52 4 15 2 25 -5 25 -12 0
-16 -38 -12 -116 1 -28 -5 -86 -14 -129 -9 -43 -14 -84 -11 -91 3 -7 0 -28 -6
-48 -10 -32 -8 -42 20 -98 34 -69 52 -171 32 -183 -8 -5 -7 -10 4 -18 11 -8
13 -17 6 -27 -15 -25 -32 3 -41 66 -8 56 -33 107 -28 54 6 -53 -21 -125 -33
-89 -2 5 -11 -6 -19 -25 -18 -39 -9 -48 14 -16 13 18 15 19 21 5 3 -9 6 -39 6
-67 0 -49 0 -50 -27 -44 -16 3 -45 8 -66 12 l-38 6 22 25 c18 18 30 22 50 18
15 -4 30 -1 34 4 3 6 -1 11 -10 11 -9 0 -27 7 -40 16 -22 14 -25 15 -25 1 0
-9 -11 -28 -24 -44 -27 -32 -26 -32 -207 -8 -52 6 -57 5 -75 -18 -26 -33 -50
-172 -34 -193 7 -8 21 -14 31 -14 18 0 19 -10 20 -152 1 -84 0 -168 -1 -185
-1 -23 3 -33 13 -33 12 0 16 16 19 73 2 39 1 79 -3 87 -6 14 5 141 15 166 5
14 92 -1 290 -50 82 -20 150 -35 152 -33 4 4 -70 25 -181 51 -33 7 -87 21
-120 29 -33 9 -86 21 -118 27 -53 11 -59 15 -78 52 -17 33 -18 42 -7 49 11 8
11 10 -1 18 -11 7 -10 13 5 35 11 14 25 26 33 26 11 0 9 4 -5 14 -18 14 -18
15 6 20 14 3 43 4 65 2 22 -2 64 -4 94 -5 47 -1 52 -3 41 -16 -7 -9 -10 -18
-6 -22 3 -3 6 -1 6 5 0 8 20 12 55 12 44 0 55 -3 55 -16 0 -10 6 -14 15 -11 8
4 17 1 21 -4 4 -6 15 -2 29 11 l24 22 26 -28 27 -29 -22 35 c-37 60 -51 99
-44 125 3 14 10 25 14 25 4 0 29 -32 55 -70 50 -73 62 -86 73 -76 3 4 -12 24
-33 46 -28 29 -37 46 -35 67 7 87 -1 201 -16 241 -19 50 -14 60 21 44 14 -6
37 -9 52 -6 17 3 61 -5 108 -20 59 -19 89 -23 110 -17 l30 8 -40 6 c-102 15
-280 58 -302 72 -25 17 -31 45 -9 45 16 0 15 15 -2 46 -10 18 -7 25 18 49 34
33 39 51 10 35 -17 -9 -20 -8 -20 8 0 10 6 27 14 37 12 17 21 10 131 -93 64
-62 122 -112 128 -111 8 0 8 2 0 6 -7 2 -13 8 -13 13 0 14 -124 141 -182 187
-63 48 -73 77 -41 122 15 23 17 23 30 6 19 -27 16 -15 -11 41 -16 33 -21 56
-16 69 7 17 7 55 1 98 -1 5 -6 5 -12 1 -8 -5 -10 23 -7 100 2 68 0 106 -7 106
-5 0 -4 4 3 9 7 4 15 14 16 22 15 74 21 97 32 114 7 11 18 43 25 70 15 64 69
176 81 169 13 -8 69 6 62 17 -7 13 4 11 19 -2 8 -8 12 -54 11 -153 l0 -141 5
140 c6 140 6 140 31 143 14 2 30 8 35 13 6 7 -5 8 -32 3 -29 -4 -43 -3 -43 5
0 6 -11 11 -25 11 -14 0 -25 4 -25 9 0 6 -12 9 -27 8 -24 -2 -28 2 -28 25 -1
27 0 27 23 12 31 -20 39 -11 14 14 -28 28 -39 51 -45 92 l-6 35 35 -40 c36
-43 48 -41 14 2 -11 14 -20 41 -20 59 0 38 -14 44 -30 14z"/>
<path d="M1338 2207 c-32 -17 -58 -35 -58 -39 0 -4 14 1 32 12 17 10 34 17 38
15 3 -2 19 7 36 20 41 34 19 30 -48 -8z"/>
<path d="M1570 2200 c-33 -27 -33 -29 -12 -30 13 0 20 4 17 10 -3 6 0 10 8 10
8 0 20 7 27 15 7 8 16 12 21 9 5 -3 9 0 9 5 0 20 -35 11 -70 -19z"/>
<path d="M1920 2222 c0 -5 22 -19 50 -33 52 -25 67 -44 51 -63 -5 -6 -16 -76
-25 -156 -34 -305 -40 -350 -48 -338 -4 8 -8 -11 -9 -42 0 -30 -2 -66 -3 -78
-2 -13 2 -29 8 -35 17 -19 12 -205 -7 -248 -17 -39 -12 -60 8 -33 9 13 13 9
25 -28 7 -23 17 -48 21 -53 4 -6 10 -31 12 -55 2 -25 3 -15 1 23 -2 58 0 67
14 67 37 0 62 -13 62 -31 0 -11 5 -19 10 -19 6 0 10 9 10 19 0 11 3 26 6 35 5
14 -1 15 -38 10 -27 -4 -54 -2 -67 5 -21 12 -21 16 -19 184 2 95 0 207 -4 249
-8 81 -2 117 41 238 10 30 22 87 25 125 5 66 5 67 -5 20 -17 -85 -41 -176 -46
-171 -5 5 24 260 33 289 6 18 7 18 25 -1 10 -11 21 -33 25 -49 4 -15 14 -36
22 -45 8 -10 12 -18 9 -18 -3 0 12 -43 33 -95 22 -52 40 -102 40 -110 0 -8 6
-15 13 -15 7 -1 5 -6 -6 -14 -16 -13 -16 -14 5 -21 18 -6 20 -8 7 -12 -25 -6
-29 -50 -8 -93 11 -22 19 -44 19 -50 0 -6 10 -30 21 -53 44 -85 43 -92 -14
-142 -53 -46 -66 -53 -68 -35 -1 6 -3 15 -4 20 -1 6 -3 61 -4 123 -1 86 -5
118 -17 133 -15 19 -15 19 -10 -1 3 -11 7 -120 8 -242 3 -189 5 -222 18 -220
9 1 17 -11 21 -38 11 -59 9 -294 -2 -340 -5 -22 -10 -140 -12 -262 -2 -245 -3
-248 -66 -262 -20 -4 -28 -10 -23 -18 11 -18 92 23 92 46 0 10 3 21 7 25 4 4
8 108 9 231 2 137 7 231 13 243 13 24 13 182 2 392 -6 114 -5 147 5 153 7 4
33 27 59 50 l47 44 -53 132 c-53 135 -54 140 -15 154 4 1 -3 30 -17 63 -14 33
-43 108 -65 165 -51 134 -83 198 -119 229 -31 28 -103 64 -103 52z"/>
<path d="M1696 2157 l-27 -9 26 -14 c15 -8 33 -14 40 -14 6 0 20 -9 30 -20 10
-12 25 -18 32 -16 8 3 16 -9 23 -34 6 -21 14 -40 19 -42 4 -2 11 -15 14 -29 6
-25 5 -27 -29 -27 -52 0 -77 -26 -69 -74 4 -21 3 -38 -2 -38 -13 0 -35 -82
-25 -92 12 -12 115 -27 127 -18 6 4 24 10 41 13 30 6 31 4 33 -31 1 -20 3 -43
3 -49 1 -7 5 -13 10 -13 5 0 6 21 4 48 -3 26 -8 75 -11 110 -11 114 -63 234
-133 308 -12 12 -19 24 -17 26 11 10 -65 23 -89 15z m112 -254 c-4 -34 -23
-41 -38 -13 -13 25 -6 40 21 40 16 0 20 -6 17 -27z m60 5 c-3 -23 -48 -41 -48
-20 0 24 14 42 32 42 14 0 19 -6 16 -22z m5 -65 c6 -16 17 -34 23 -40 7 -7 10
-21 7 -32 -4 -17 -14 -19 -81 -17 -74 1 -77 2 -80 26 -2 22 -1 23 8 8 9 -15
24 -18 78 -16 49 1 55 3 25 5 -29 3 -43 9 -43 19 0 17 14 18 41 4 13 -7 19 -7
19 0 0 5 -7 10 -15 10 -8 0 -18 12 -22 27 l-6 28 -10 -28 c-10 -32 -47 -38
-47 -7 0 23 25 39 63 40 20 0 30 -7 40 -27z"/>
<path d="M1363 2098 c-31 -35 -56 -89 -46 -99 6 -6 15 7 22 33 7 24 22 53 34
66 11 12 18 22 15 22 -2 0 -14 -10 -25 -22z"/>
<path d="M1600 2066 c0 -43 24 -66 47 -44 11 11 13 25 8 48 -5 24 -10 29 -16
19 -6 -10 -9 -11 -9 -1 0 6 -7 12 -15 12 -10 0 -15 -10 -15 -34z m50 -20 c0
-20 -19 -31 -32 -18 -6 6 -7 15 -4 21 10 16 36 13 36 -3z"/>
<path d="M1742 2056 c-6 -15 -14 -46 -17 -69 -5 -39 -3 -38 15 18 21 64 22 95
2 51z"/>
<path d="M1275 1941 c-3 -11 -2 -28 3 -38 6 -10 15 -29 21 -43 7 -14 9 -17 6
-7 -3 10 -5 30 -5 43 0 15 -4 23 -10 19 -7 -4 -9 2 -4 19 7 30 -2 35 -11 7z"/>
<path d="M1615 1909 c-4 -6 0 -9 11 -7 11 2 20 -4 22 -14 4 -21 -33 -26 -41
-5 -3 7 -6 5 -6 -6 -1 -10 6 -20 15 -24 23 -8 47 20 39 46 -7 22 -29 28 -40
10z"/>
<path d="M2047 1656 c-26 -7 -51 -17 -55 -21 -12 -13 79 5 101 20 25 18 18 18
-46 1z"/>
<path d="M5 1620 c-4 -6 11 -10 36 -10 47 0 47 11 0 16 -17 2 -33 -1 -36 -6z"/>
<path d="M74 1584 c-10 -8 -13 -13 -6 -9 6 3 12 2 12 -4 0 -5 -6 -11 -12 -14
-10 -3 -10 -8 -2 -16 9 -10 15 -8 28 5 16 16 19 15 48 -12 25 -24 28 -25 19
-7 -6 11 -24 27 -41 35 -32 14 -37 23 -17 31 6 3 7 6 1 6 -5 1 -19 -6 -30 -15z"/>
<path d="M17 1506 c-15 -12 -17 -27 -14 -107 l3 -94 2 93 c1 53 6 92 12 92 6
0 10 -4 10 -10 0 -5 13 -10 30 -10 16 0 40 -5 54 -12 24 -10 25 -14 20 -67 -6
-52 -47 -171 -80 -233 -8 -16 -11 -28 -6 -28 5 0 30 44 55 98 36 74 47 108 47
146 0 39 3 47 15 42 22 -8 18 17 -5 32 -11 7 -20 22 -20 33 0 16 -4 19 -17 14
-10 -3 -31 -9 -47 -12 -25 -5 -28 -4 -21 16 7 25 -10 28 -38 7z"/>
<path d="M197 1408 c-2 -7 5 -25 16 -40 40 -54 33 -164 -20 -331 -24 -78 -27
-130 -3 -72 24 60 70 258 70 304 0 28 -10 67 -25 99 -25 54 -31 60 -38 40z"/>
<path d="M40 1290 c0 -10 -9 -42 -20 -70 -11 -27 -16 -50 -12 -50 4 0 15 21
24 48 28 80 30 92 19 92 -6 0 -11 -9 -11 -20z"/>
<path d="M1410 1262 c0 -5 -10 -13 -22 -16 -22 -7 -22 -7 -3 -15 11 -5 26 -6
33 -4 14 6 16 29 2 38 -5 3 -10 2 -10 -3z"/>
<path d="M98 1169 l-28 -61 26 -20 c14 -12 29 -30 34 -42 5 -13 8 19 7 81 -1
57 -4 103 -7 103 -3 -1 -17 -28 -32 -61z"/>
<path d="M1168 1085 c2 -49 6 -108 10 -130 4 -22 5 -60 1 -85 -3 -25 -4 -80
-1 -123 5 -74 5 -76 19 -50 18 36 24 81 12 89 -6 3 -7 19 -4 35 10 44 14 139
6 139 -4 0 -7 42 -7 93 l1 92 33 3 32 3 1 -73 2 -73 7 73 c5 40 10 78 13 85 3
9 -13 12 -62 12 l-66 0 3 -90z"/>
<path d="M47 1076 c-4 -9 0 -12 11 -9 26 6 65 -90 58 -142 l-5 -40 13 34 c8
22 15 31 20 23 9 -16 -2 -50 -25 -81 -11 -13 -19 -33 -19 -45 0 -15 8 -8 28
26 15 27 30 48 33 48 4 0 14 -21 24 -47 48 -129 132 -273 158 -273 20 0 243
-104 265 -124 13 -11 47 -57 77 -101 56 -83 160 -194 171 -182 4 3 -21 36 -55
73 -34 36 -88 104 -119 151 -63 94 -60 92 -222 163 -63 28 -122 55 -130 59
-16 8 -72 103 -65 110 3 2 -4 16 -14 30 -20 30 -131 264 -131 278 0 10 -52 63
-62 63 -3 0 -8 -6 -11 -14z"/>
<path d="M2073 1040 c3 -27 2 -50 -2 -50 -13 0 -22 -30 -14 -43 12 -19 13 -39
3 -57 -5 -10 -6 -20 -3 -24 10 -9 10 -69 1 -88 -5 -10 -14 -18 -21 -18 -7 0
-28 -16 -47 -35 -18 -19 -38 -31 -44 -27 -6 3 -18 7 -26 7 -8 0 -16 8 -18 18
-3 15 0 16 25 7 l28 -11 -28 23 c-27 22 -28 24 -13 53 9 17 16 35 16 42 0 6
11 25 25 41 13 16 29 42 35 58 12 31 5 78 -10 69 -7 -4 -6 -13 0 -26 8 -13 7
-25 -1 -41 -7 -13 -14 -18 -16 -12 -2 6 -35 2 -91 -12 -48 -13 -111 -23 -140
-23 -33 -1 -51 -5 -47 -11 3 -5 16 -10 28 -10 18 0 19 -2 7 -10 -25 -16 22
-12 64 5 20 8 36 12 36 9 0 -4 6 -2 13 3 6 6 29 14 51 17 35 7 38 6 31 -11
-16 -39 -34 -132 -30 -153 2 -13 10 -30 18 -39 24 -29 37 -96 37 -197 0 -54 0
-106 1 -114 0 -28 -9 -145 -14 -165 -11 -51 -21 -81 -30 -93 -5 -6 -6 -12 -3
-12 4 0 2 -8 -3 -17 -13 -25 -21 -82 -12 -88 5 -2 23 44 41 103 39 124 50 236
42 442 l-4 135 61 38 61 37 1 88 c1 48 3 122 5 165 1 49 -2 77 -8 77 -7 0 -9
-18 -5 -50z"/>
<path d="M65 790 c7 -57 23 -121 24 -95 1 11 4 36 6 55 4 26 0 42 -15 60 l-20
25 5 -45z"/>
<path d="M1965 800 c-8 -16 -15 -37 -15 -47 0 -15 4 -14 20 7 10 14 17 26 15
29 -3 2 0 12 6 22 6 13 6 19 0 19 -6 0 -17 -13 -26 -30z"/>
<path d="M280 714 c0 -7 132 -65 137 -61 2 2 -28 18 -67 35 -38 17 -70 29 -70
26z"/>
<path d="M1650 702 c0 -5 16 -16 35 -25 42 -20 47 -8 6 16 -32 19 -41 21 -41
9z"/>
<path d="M73 600 c0 -36 2 -50 4 -32 2 17 2 47 0 65 -2 17 -4 3 -4 -33z"/>
<path d="M430 647 c0 -3 31 -17 70 -32 62 -24 74 -33 114 -88 60 -81 116 -145
116 -131 0 6 -12 21 -26 35 -15 13 -51 56 -80 96 -45 60 -62 74 -106 91 -29
11 -61 23 -70 27 -10 4 -18 5 -18 2z"/>
<path d="M67 523 c-4 -3 -6 -29 -6 -57 l1 -51 8 55 c9 57 8 65 -3 53z"/>
<path d="M1505 501 c-4 -8 101 -41 130 -41 8 0 15 5 15 10 0 6 -11 10 -23 10
-13 0 -45 6 -70 14 -26 8 -49 11 -52 7z"/>
<path d="M1628 423 c-10 -2 -18 -6 -18 -7 0 -1 -9 -45 -20 -96 -23 -109 -23
-103 -11 -96 5 3 14 36 21 73 13 77 25 103 45 103 8 0 15 7 15 15 0 15 -2 16
-32 8z"/>
<path d="M1381 236 c9 -9 129 -46 146 -45 10 1 -16 12 -57 25 -72 23 -98 29
-89 20z"/>
<path d="M2017 233 c-5 -7 -4 -36 1 -65 5 -29 10 -78 11 -108 3 -87 11 -72 10
21 0 99 -11 170 -22 152z"/>
<path d="M1127 148 c-22 -23 -31 -41 -29 -58 7 -68 14 -90 27 -90 11 0 13 10
9 43 -9 64 15 107 60 107 27 0 41 -8 67 -37 18 -21 40 -37 48 -36 10 2 11 0 4
-3 -16 -7 -17 -44 -2 -44 8 0 8 -5 -1 -15 -10 -13 -9 -15 9 -15 18 0 21 6 21
42 0 37 -6 47 -50 90 -43 41 -56 48 -90 48 -33 0 -47 -7 -73 -32z"/>
<path d="M1173 124 c-7 -18 11 -39 35 -39 10 0 18 -9 20 -22 2 -16 -3 -22 -20
-25 -12 -2 -24 -11 -26 -21 -3 -15 2 -18 24 -15 21 2 31 11 41 38 7 19 11 25
9 13 -5 -28 9 -40 19 -15 4 12 -2 24 -22 39 -15 13 -31 23 -35 23 -5 0 -8 6
-8 14 0 20 -30 29 -37 10z"/>
</g>
</svg>
